Coordinates
version=1
nRows=9
nColumns=42
inDegrees=yes

Units are S.I. units (second, meters, Newtons, ...)
If the header above contains a line with 'inDegrees', this indicates whether rotational values are in degrees (yes) or radians (no).

endheader
time	pelvis_tilt	pelvis_list	pelvis_rotation	pelvis_tx	pelvis_ty	pelvis_tz	hip_flexion_r	hip_adduction_r	hip_rotation_r	knee_angle_r	knee_adduction_r	knee_angle_r_beta	ankle_angle_r	subtalar_angle_r	mtp_angle_r	hip_flexion_l	hip_adduction_l	hip_rotation_l	knee_angle_l	knee_adduction_l	knee_angle_l_beta	ankle_angle_l	subtalar_angle_l	mtp_angle_l	lumbar_extension	lumbar_bending	lumbar_rotation	arm_flex_r	arm_add_r	arm_rot_r	elbow_flex_r	pro_sup_r	wrist_flex_r	wrist_dev_r	arm_flex_l	arm_add_l	arm_rot_l	elbow_flex_l	pro_sup_l	wrist_flex_l	wrist_dev_l
      0.55000000	      8.60383902	      0.83256631	      0.12243026	     -0.60807018	      1.00715591	     -0.26743439	     18.31072450	     -5.96519276	    -11.00599307	     19.43410663	      7.15116243	      0.33918915	      1.60732722	     -7.68897226	     -7.81091830	    -21.33119228	     -2.95604273	      0.61504927	      6.39040486	     11.94923270	      0.11153361	     14.41640421	      2.07393314	     -7.81091830	    -21.07059728	     -1.42384106	     -4.15091899	     -5.07442824	     -6.02658463	    -17.23900822	      9.38892243	     90.00000001	      0.00000000	      0.00000000	     20.80513464	    -18.87270268	     -3.13075647	     38.49169273	     90.00000001	      0.00000000	      0.00000000
      0.56000000	      8.41142858	      1.00335522	      0.27075760	     -0.59426553	      1.00432606	     -0.26687874	     18.28739660	     -6.14076142	    -11.65113730	     16.20524298	      7.66812193	      0.28283485	      1.88882931	     -5.95777654	     -7.79976923	    -21.86603290	     -2.86282978	      0.49222614	      6.69593864	     11.89519213	      0.11686618	     14.91558109	      2.48549293	     -7.79976923	    -20.86578769	     -1.49801251	     -4.33250512	     -5.50035313	     -5.95143873	    -18.46748031	      9.79326427	     90.00000001	      0.00000000	      0.00000000	     21.31485345	    -19.30614668	     -2.64261407	     39.56802644	     90.00000001	      0.00000000	      0.00000000
      0.57000000	      8.23054831	      1.06345217	      0.46593464	     -0.58018140	      1.00149913	     -0.26621047	     18.26186112	     -6.22140914	    -12.42088960	     13.40087032	      8.18263089	      0.23388931	      2.01311308	     -4.19362715	     -7.78766890	    -22.41939368	     -2.96585047	      0.43661485	      7.01517366	     11.94703322	      0.12243788	     15.33262703	      2.94449966	     -7.78766890	    -20.64911091	     -1.45249142	     -4.51743192	     -5.86130043	     -5.88142913	    -20.05447274	     10.22657638	     90.00000001	      0.00000000	      0.00000000	     21.70439434	    -19.72168248	     -2.19951153	     40.62999623	     90.00000001	      0.00000000	      0.00000000
      0.58000000	      7.75943247	      1.35176660	      0.60215808	     -0.56626734	      0.99833247	     -0.26571672	     18.72560782	     -6.60387722	    -12.80581441	     11.27049572	      8.80641493	      0.19670726	      2.00390533	     -2.85714990	     -7.78271225	    -22.56291057	     -2.74414716	      0.57695678	      7.48840927	     11.88585457	      0.13069740	     15.66968044	      3.13191745	     -7.78271225	    -20.13928003	     -1.64295205	     -4.73881510	     -6.39420210	     -5.82108988	    -20.80717597	     11.04149860	     90.00000001	      0.00000000	      0.00000000	     22.05471270	    -20.01377233	     -2.10701024	     41.51773711	     90.00000001	      0.00000000	      0.00000000
      0.59000000	      7.67944199	      1.43732519	      0.83708096	     -0.55197944	      0.99572133	     -0.26509412	     18.68981284	     -6.72315449	    -13.17392656	      9.48877258	      9.26733650	      0.16561032	      2.18727798	     -1.57022497	     -7.77714930	    -23.16089106	     -2.83378195	      0.76746968	      7.92615953	     11.89059369	      0.13833758	     15.92199448	      3.38478003	     -7.77714930	    -20.03807552	     -1.59680347	     -4.98467552	     -6.77321466	     -5.74441148	    -21.88222724	     11.57655105	     90.00000001	      0.00000000	      0.00000000	     22.27445109	    -20.37616640	     -1.85223878	     42.56386373	     90.00000001	      0.00000000	      0.00000000
      0.60000000	      7.45837525	      1.45101211	      1.04781383	     -0.53748096	      0.99301751	     -0.26462704	     18.90133698	     -6.81368751	    -13.37572835	      8.37468085	      9.73043115	      0.14616575	      2.25233759	     -0.65298118	     -7.77327046	    -23.59250825	     -2.96243259	      1.00295459	      8.39910004	     11.84276489	      0.14659195	     16.08207533	      3.52119710	     -7.77327046	    -19.76129432	     -1.43792325	     -5.20561678	     -7.19304237	     -5.72287993	    -22.65660360	     12.02759289	     90.00000001	      0.00000000	      0.00000000	     22.37265469	    -20.61771124	     -1.77729525	     43.43324195	     90.00000001	      0.00000000	      0.00000000
      0.61000000	      7.52649042	      1.15057540	      1.41338827	     -0.52278626	      0.99080726	     -0.26385004	     18.80720628	     -6.44851107	    -13.81536687	      7.78654960	      9.75879532	      0.13590093	      2.48868848	      0.42138276	     -7.76024932	    -24.27184382	     -3.61070337	      1.18036110	      9.00823725	     11.96387688	      0.15722340	     16.24336338	      3.94299757	     -7.76024932	    -19.78969986	     -0.93515347	     -5.43486157	     -7.27430609	     -5.65456130	    -24.31897285	     11.69914359	     90.00000001	      0.00000000	      0.00000000	     22.39952591	    -20.88945555	     -1.59129442	     44.41832170	     90.00000001	      0.00000000	      0.00000000
      0.62000000	      7.34974418	      1.11913172	      1.64120451	     -0.50817596	      0.98841001	     -0.26336411	     19.09919306	     -6.39847443	    -13.55661792	      7.77270672	      9.84107311	      0.13565932	      2.57838257	      0.70863545	     -7.75603818	    -24.60771474	     -3.80194031	      1.58412514	      9.73782428	     11.88223952	      0.16995710	     16.24000932	      3.96200765	     -7.75603818	    -19.57320343	     -0.70321633	     -5.66893821	     -7.65203885	     -5.62257061	    -24.60208752	     11.75455626	     90.00000001	      0.00000000	      0.00000000	     22.32589953	    -21.02687778	     -1.77013346	     45.20310363	     90.00000001	      0.00000000	      0.00000000
      0.63000000	      7.22451832	      1.02072164	      1.81113586	     -0.49338562	      0.98624659	     -0.26294833	     19.35748344	     -6.25202380	    -13.06599596	      8.20206593	      9.83581244	      0.14315306	      2.51572797	      0.79928282	     -7.75439782	    -25.03524412	     -4.01225606	      2.10221158	     10.37797211	     11.75188576	      0.18112978	     16.09339477	      4.05414608	     -7.75439782	    -19.38738179	     -0.37752444	     -5.76305409	     -8.06250344	     -5.63694556	    -24.64397147	     11.64066861	     90.00000001	      0.00000000	      0.00000000	     22.33572927	    -21.03552294	     -1.85588451	     45.56974512	     90.00000001	      0.00000000	      0.00000000
